<svg xmlns="http://www.w3.org/2000/svg" xmlns:xlink="http://www.w3.org/1999/xlink" contentStyleType="text/css" data-diagram-type="CLASS" height="1286px" preserveAspectRatio="none" style="width:1899px;height:1286px;background:#FFFFFF;" version="1.1" viewBox="0 0 1899 1286" width="1899px" zoomAndPan="magnify"><title>Diagramme UML - Hi&#233;rarchie Entity / Player / Enemy / Item</title><defs/><g><g class="title" data-source-line="12"><text fill="#000000" font-family="sans-serif" font-size="14" font-weight="bold" lengthAdjust="spacing" textLength="462.4443" x="711.2778" y="22.9951">Diagramme UML - Hi&#233;rarchie Entity / Player / Enemy / Item</text></g><!--cluster Players--><g class="cluster" data-entity="Players" data-source-line="27" data-uid="ent0003" id="cluster_Players"><rect fill="none" height="418.86" rx="2.5" ry="2.5" style="stroke:#000000;stroke-width:1.5;" width="333" x="7" y="580.1569"/><text fill="#000000" font-family="sans-serif" font-size="14" font-weight="bold" lengthAdjust="spacing" textLength="58.3652" x="144.3174" y="595.152">Players</text></g><!--cluster Enemies--><g class="cluster" data-entity="Enemies" data-source-line="57" data-uid="ent0009" id="cluster_Enemies"><rect fill="none" height="429.08" rx="2.5" ry="2.5" style="stroke:#000000;stroke-width:1.5;" width="629" x="364" y="851.1269"/><text fill="#000000" font-family="sans-serif" font-size="14" font-weight="bold" lengthAdjust="spacing" textLength="66.2402" x="645.3799" y="866.122">Enemies</text></g><!--cluster Items--><g class="cluster" data-entity="Items" data-source-line="88" data-uid="ent0021" id="cluster_Items"><rect fill="none" height="272.18" rx="2.5" ry="2.5" style="stroke:#000000;stroke-width:1.5;" width="876" x="1017" y="875.5769"/><text fill="#000000" font-family="sans-serif" font-size="14" font-weight="bold" lengthAdjust="spacing" textLength="44.3174" x="1432.8413" y="890.572">Items</text></g><!--cluster Game System--><g class="cluster" data-entity="Game System" data-source-line="113" data-uid="ent0029" id="cluster_Game System"><rect fill="none" height="732.64" rx="2.5" ry="2.5" style="stroke:#000000;stroke-width:1.5;" width="622" x="578" y="44.2969"/><text fill="#000000" font-family="sans-serif" font-size="14" font-weight="bold" lengthAdjust="spacing" textLength="108.2129" x="834.8936" y="59.292">Game System</text></g><!--class Player--><g class="entity" data-entity="Player" data-source-line="28" data-uid="ent0004" id="entity_Player"><rect fill="#F1F1F1" height="210.9688" rx="2.5" ry="2.5" style="stroke:#181818;stroke-width:0.5;" width="256.8154" x="67.59" y="615.1569"/><ellipse cx="169.965" cy="631.1569" fill="#CDCDCD" rx="11" ry="11" style="stroke:#181818;stroke-width:1;"/><path d="M170.0744,626.5006 L168.9181,631.5788 L171.2463,631.5788 L170.0744,626.5006 Z M168.59,624.2663 L171.5744,624.2663 L174.9338,636.6569 L172.4806,636.6569 L171.715,633.5944 L168.4338,633.5944 L167.6838,636.6569 L165.2463,636.6569 L168.59,624.2663 Z " fill="#000000"/><text fill="#000000" font-family="sans-serif" font-size="14" font-style="italic" lengthAdjust="spacing" textLength="43.5654" x="190.465" y="636.0036">Player</text><line style="stroke:#181818;stroke-width:0.5;" x1="68.59" x2="323.4054" y1="647.1569" y2="647.1569"/><text fill="#000000" font-family="sans-serif" font-size="14" lengthAdjust="spacing" textLength="64.3877" x="73.59" y="664.152">#vie : int</text><text fill="#000000" font-family="sans-serif" font-size="14" lengthAdjust="spacing" textLength="85.8936" x="73.59" y="680.4489">#armor : int</text><text fill="#000000" font-family="sans-serif" font-size="14" lengthAdjust="spacing" textLength="121.9121" x="73.59" y="696.7457">#baseAttack : int</text><text fill="#000000" font-family="sans-serif" font-size="14" lengthAdjust="spacing" textLength="130.751" x="73.59" y="713.0426">#attackBonus : int</text><text fill="#000000" font-family="sans-serif" font-size="14" lengthAdjust="spacing" textLength="152.0176" x="73.59" y="729.3395">#isBlocking : boolean</text><line style="stroke:#181818;stroke-width:0.5;" x1="68.59" x2="323.4054" y1="736.6413" y2="736.6413"/><text fill="#000000" font-family="sans-serif" font-size="14" lengthAdjust="spacing" textLength="109.8398" x="73.59" y="753.6364">+attack() : void</text><text fill="#000000" font-family="sans-serif" font-size="14" lengthAdjust="spacing" textLength="103.0449" x="73.59" y="769.9332">+block() : void</text><text fill="#000000" font-family="sans-serif" font-size="14" lengthAdjust="spacing" textLength="101.1855" x="73.59" y="786.2301">+jump() : void</text><text fill="#000000" font-family="sans-serif" font-size="14" lengthAdjust="spacing" textLength="244.8154" x="73.59" y="802.527">+takeDamage(damage : int) : void</text><text fill="#000000" font-family="sans-serif" font-size="14" lengthAdjust="spacing" textLength="157.5273" x="73.59" y="818.8239">+getTotalAttack() : int</text></g><!--class Hugo--><g class="entity" data-entity="Hugo" data-source-line="41" data-uid="ent0005" id="entity_Hugo"><rect fill="#F1F1F1" height="64.2969" rx="2.5" ry="2.5" style="stroke:#181818;stroke-width:0.5;" width="121.8398" x="23.08" y="910.5769"/><ellipse cx="61.9243" cy="926.5769" fill="#C2C2C2" rx="11" ry="11" style="stroke:#181818;stroke-width:1;"/><path d="M64.893,932.2175 Q64.3149,932.5144 63.6743,932.655 Q63.0337,932.8113 62.3305,932.8113 Q59.8305,932.8113 58.5024,931.1706 Q57.1899,929.5144 57.1899,926.3894 Q57.1899,923.2644 58.5024,921.6081 Q59.8305,919.9519 62.3305,919.9519 Q63.0337,919.9519 63.6743,920.1081 Q64.3305,920.2644 64.893,920.5613 L64.893,923.28 Q64.268,922.7019 63.6743,922.4363 Q63.0805,922.155 62.4555,922.155 Q61.1118,922.155 60.4243,923.2331 Q59.7368,924.2956 59.7368,926.3894 Q59.7368,928.4831 60.4243,929.5613 Q61.1118,930.6238 62.4555,930.6238 Q63.0805,930.6238 63.6743,930.3581 Q64.268,930.0769 64.893,929.4988 L64.893,932.2175 Z " fill="#000000"/><text fill="#000000" font-family="sans-serif" font-size="14" lengthAdjust="spacing" textLength="36.8525" x="81.223" y="931.4236">Hugo</text><line style="stroke:#181818;stroke-width:0.5;" x1="24.08" x2="143.9198" y1="942.5769" y2="942.5769"/><line style="stroke:#181818;stroke-width:0.5;" x1="24.08" x2="143.9198" y1="950.5769" y2="950.5769"/><text fill="#000000" font-family="sans-serif" font-size="14" lengthAdjust="spacing" textLength="109.8398" x="29.08" y="967.572">+attack() : void</text></g><!--class Alexis--><g class="entity" data-entity="Alexis" data-source-line="45" data-uid="ent0006" id="entity_Alexis"><rect fill="#F1F1F1" height="80.5938" rx="2.5" ry="2.5" style="stroke:#181818;stroke-width:0.5;" width="144.5283" x="179.74" y="902.4269"/><ellipse cx="226.9797" cy="918.4269" fill="#C2C2C2" rx="11" ry="11" style="stroke:#181818;stroke-width:1;"/><path d="M229.9485,924.0675 Q229.3704,924.3644 228.7297,924.505 Q228.0891,924.6613 227.386,924.6613 Q224.886,924.6613 223.5579,923.0206 Q222.2454,921.3644 222.2454,918.2394 Q222.2454,915.1144 223.5579,913.4581 Q224.886,911.8019 227.386,911.8019 Q228.0891,911.8019 228.7297,911.9581 Q229.386,912.1144 229.9485,912.4113 L229.9485,915.13 Q229.3235,914.5519 228.7297,914.2863 Q228.136,914.005 227.511,914.005 Q226.1672,914.005 225.4797,915.0831 Q224.7922,916.1456 224.7922,918.2394 Q224.7922,920.3331 225.4797,921.4113 Q226.1672,922.4738 227.511,922.4738 Q228.136,922.4738 228.7297,922.2081 Q229.3235,921.9269 229.9485,921.3488 L229.9485,924.0675 Z " fill="#000000"/><text fill="#000000" font-family="sans-serif" font-size="14" lengthAdjust="spacing" textLength="41.5488" x="247.4797" y="923.2736">Alexis</text><line style="stroke:#181818;stroke-width:0.5;" x1="180.74" x2="323.2683" y1="934.4269" y2="934.4269"/><text fill="#000000" font-family="sans-serif" font-size="14" lengthAdjust="spacing" textLength="132.5283" x="185.74" y="951.422">#comboCount : int</text><line style="stroke:#181818;stroke-width:0.5;" x1="180.74" x2="323.2683" y1="958.7238" y2="958.7238"/><text fill="#000000" font-family="sans-serif" font-size="14" lengthAdjust="spacing" textLength="109.8398" x="185.74" y="975.7189">+attack() : void</text></g><!--class Enemy--><g class="entity" data-entity="Enemy" data-source-line="58" data-uid="ent0010" id="entity_Enemy"><rect fill="#F1F1F1" height="113.1875" rx="2.5" ry="2.5" style="stroke:#181818;stroke-width:0.5;" width="256.8154" x="418.59" y="886.1269"/><ellipse cx="518.6203" cy="902.1269" fill="#CDCDCD" rx="11" ry="11" style="stroke:#181818;stroke-width:1;"/><path d="M518.7296,897.4706 L517.5734,902.5488 L519.9015,902.5488 L518.7296,897.4706 Z M517.2453,895.2363 L520.2296,895.2363 L523.589,907.6269 L521.1359,907.6269 L520.3703,904.5644 L517.089,904.5644 L516.339,907.6269 L513.9015,907.6269 L517.2453,895.2363 Z " fill="#000000"/><text fill="#000000" font-family="sans-serif" font-size="14" font-style="italic" lengthAdjust="spacing" textLength="48.2549" x="539.1203" y="906.9736">Enemy</text><line style="stroke:#181818;stroke-width:0.5;" x1="419.59" x2="674.4054" y1="918.1269" y2="918.1269"/><text fill="#000000" font-family="sans-serif" font-size="14" lengthAdjust="spacing" textLength="64.3877" x="424.59" y="935.122">#vie : int</text><text fill="#000000" font-family="sans-serif" font-size="14" lengthAdjust="spacing" textLength="87.541" x="424.59" y="951.4189">#attack : int</text><line style="stroke:#181818;stroke-width:0.5;" x1="419.59" x2="674.4054" y1="958.7206" y2="958.7206"/><text fill="#000000" font-family="sans-serif" font-size="14" lengthAdjust="spacing" textLength="244.8154" x="424.59" y="975.7157">+takeDamage(damage : int) : void</text><text fill="#000000" font-family="sans-serif" font-size="14" lengthAdjust="spacing" textLength="230.125" x="424.59" y="992.0126">+updateAI(player : Player) : void</text></g><!--class Sbire--><g class="entity" data-entity="Sbire" data-source-line="65" data-uid="ent0011" id="entity_Sbire"><rect fill="#F1F1F1" height="48" rx="2.5" ry="2.5" style="stroke:#181818;stroke-width:0.5;" width="68.0322" x="512.98" y="1075.6169"/><ellipse cx="527.98" cy="1091.6169" fill="#CDCDCD" rx="11" ry="11" style="stroke:#181818;stroke-width:1;"/><path d="M528.0894,1086.9606 L526.9331,1092.0388 L529.2613,1092.0388 L528.0894,1086.9606 Z M526.605,1084.7263 L529.5894,1084.7263 L532.9488,1097.1169 L530.4956,1097.1169 L529.73,1094.0544 L526.4488,1094.0544 L525.6988,1097.1169 L523.2613,1097.1169 L526.605,1084.7263 Z " fill="#000000"/><text fill="#000000" font-family="sans-serif" font-size="14" font-style="italic" lengthAdjust="spacing" textLength="36.0322" x="541.98" y="1096.4636">Sbire</text><line style="stroke:#181818;stroke-width:0.5;" x1="513.98" x2="580.0122" y1="1107.6169" y2="1107.6169"/><line style="stroke:#181818;stroke-width:0.5;" x1="513.98" x2="580.0122" y1="1115.6169" y2="1115.6169"/></g><!--class SbireStatic--><g class="entity" data-entity="SbireStatic" data-source-line="67" data-uid="ent0012" id="entity_SbireStatic"><rect fill="#F1F1F1" height="48" rx="2.5" ry="2.5" style="stroke:#181818;stroke-width:0.5;" width="108.0635" x="379.97" y="1208.0569"/><ellipse cx="394.97" cy="1224.0569" fill="#C2C2C2" rx="11" ry="11" style="stroke:#181818;stroke-width:1;"/><path d="M397.9388,1229.6975 Q397.3606,1229.9944 396.72,1230.135 Q396.0794,1230.2913 395.3763,1230.2913 Q392.8763,1230.2913 391.5481,1228.6506 Q390.2356,1226.9944 390.2356,1223.8694 Q390.2356,1220.7444 391.5481,1219.0881 Q392.8763,1217.4319 395.3763,1217.4319 Q396.0794,1217.4319 396.72,1217.5881 Q397.3763,1217.7444 397.9388,1218.0413 L397.9388,1220.76 Q397.3138,1220.1819 396.72,1219.9163 Q396.1263,1219.635 395.5013,1219.635 Q394.1575,1219.635 393.47,1220.7131 Q392.7825,1221.7756 392.7825,1223.8694 Q392.7825,1225.9631 393.47,1227.0413 Q394.1575,1228.1038 395.5013,1228.1038 Q396.1263,1228.1038 396.72,1227.8381 Q397.3138,1227.5569 397.9388,1226.9788 L397.9388,1229.6975 Z " fill="#000000"/><text fill="#000000" font-family="sans-serif" font-size="14" lengthAdjust="spacing" textLength="76.0635" x="408.97" y="1228.9036">SbireStatic</text><line style="stroke:#181818;stroke-width:0.5;" x1="380.97" x2="487.0335" y1="1240.0569" y2="1240.0569"/><line style="stroke:#181818;stroke-width:0.5;" x1="380.97" x2="487.0335" y1="1248.0569" y2="1248.0569"/></g><!--class SbireAbstract--><g class="entity" data-entity="SbireAbstract" data-source-line="68" data-uid="ent0013" id="entity_SbireAbstract"><rect fill="#F1F1F1" height="48" rx="2.5" ry="2.5" style="stroke:#181818;stroke-width:0.5;" width="126.8008" x="522.6" y="1208.0569"/><ellipse cx="537.6" cy="1224.0569" fill="#C2C2C2" rx="11" ry="11" style="stroke:#181818;stroke-width:1;"/><path d="M540.5688,1229.6975 Q539.9906,1229.9944 539.35,1230.135 Q538.7094,1230.2913 538.0063,1230.2913 Q535.5063,1230.2913 534.1781,1228.6506 Q532.8656,1226.9944 532.8656,1223.8694 Q532.8656,1220.7444 534.1781,1219.0881 Q535.5063,1217.4319 538.0063,1217.4319 Q538.7094,1217.4319 539.35,1217.5881 Q540.0063,1217.7444 540.5688,1218.0413 L540.5688,1220.76 Q539.9438,1220.1819 539.35,1219.9163 Q538.7563,1219.635 538.1313,1219.635 Q536.7875,1219.635 536.1,1220.7131 Q535.4125,1221.7756 535.4125,1223.8694 Q535.4125,1225.9631 536.1,1227.0413 Q536.7875,1228.1038 538.1313,1228.1038 Q538.7563,1228.1038 539.35,1227.8381 Q539.9438,1227.5569 540.5688,1226.9788 L540.5688,1229.6975 Z " fill="#000000"/><text fill="#000000" font-family="sans-serif" font-size="14" lengthAdjust="spacing" textLength="94.8008" x="551.6" y="1228.9036">SbireAbstract</text><line style="stroke:#181818;stroke-width:0.5;" x1="523.6" x2="648.4008" y1="1240.0569" y2="1240.0569"/><line style="stroke:#181818;stroke-width:0.5;" x1="523.6" x2="648.4008" y1="1248.0569" y2="1248.0569"/></g><!--class SbireGet--><g class="entity" data-entity="SbireGet" data-source-line="69" data-uid="ent0014" id="entity_SbireGet"><rect fill="#F1F1F1" height="64.2969" rx="2.5" ry="2.5" style="stroke:#181818;stroke-width:0.5;" width="292.5332" x="684.73" y="1199.9069"/><ellipse cx="796.2549" cy="1215.9069" fill="#C2C2C2" rx="11" ry="11" style="stroke:#181818;stroke-width:1;"/><path d="M799.2237,1221.5475 Q798.6455,1221.8444 798.0049,1221.985 Q797.3643,1222.1413 796.6612,1222.1413 Q794.1612,1222.1413 792.833,1220.5006 Q791.5205,1218.8444 791.5205,1215.7194 Q791.5205,1212.5944 792.833,1210.9381 Q794.1612,1209.2819 796.6612,1209.2819 Q797.3643,1209.2819 798.0049,1209.4381 Q798.6612,1209.5944 799.2237,1209.8913 L799.2237,1212.61 Q798.5987,1212.0319 798.0049,1211.7663 Q797.4112,1211.485 796.7862,1211.485 Q795.4424,1211.485 794.7549,1212.5631 Q794.0674,1213.6256 794.0674,1215.7194 Q794.0674,1217.8131 794.7549,1218.8913 Q795.4424,1219.9538 796.7862,1219.9538 Q797.4112,1219.9538 798.0049,1219.6881 Q798.5987,1219.4069 799.2237,1218.8288 L799.2237,1221.5475 Z " fill="#000000"/><text fill="#000000" font-family="sans-serif" font-size="14" lengthAdjust="spacing" textLength="60.9834" x="816.7549" y="1220.7536">SbireGet</text><line style="stroke:#181818;stroke-width:0.5;" x1="685.73" x2="976.2632" y1="1231.9069" y2="1231.9069"/><line style="stroke:#181818;stroke-width:0.5;" x1="685.73" x2="976.2632" y1="1239.9069" y2="1239.9069"/><text fill="#000000" font-family="sans-serif" font-size="14" lengthAdjust="spacing" textLength="280.5332" x="690.73" y="1256.902">+stealFromPlayer(player : Player) : void</text></g><!--class MarvinBoss--><g class="entity" data-entity="MarvinBoss" data-source-line="73" data-uid="ent0015" id="entity_MarvinBoss"><rect fill="#F1F1F1" height="80.5938" rx="2.5" ry="2.5" style="stroke:#181818;stroke-width:0.5;" width="164.3936" x="615.8" y="1059.3169"/><ellipse cx="654.2782" cy="1075.3169" fill="#C2C2C2" rx="11" ry="11" style="stroke:#181818;stroke-width:1;"/><path d="M657.247,1080.9575 Q656.6688,1081.2544 656.0282,1081.395 Q655.3876,1081.5513 654.6845,1081.5513 Q652.1845,1081.5513 650.8563,1079.9106 Q649.5438,1078.2544 649.5438,1075.1294 Q649.5438,1072.0044 650.8563,1070.3481 Q652.1845,1068.6919 654.6845,1068.6919 Q655.3876,1068.6919 656.0282,1068.8481 Q656.6845,1069.0044 657.247,1069.3013 L657.247,1072.02 Q656.622,1071.4419 656.0282,1071.1763 Q655.4345,1070.895 654.8095,1070.895 Q653.4657,1070.895 652.7782,1071.9731 Q652.0907,1073.0356 652.0907,1075.1294 Q652.0907,1077.2231 652.7782,1078.3013 Q653.4657,1079.3638 654.8095,1079.3638 Q655.4345,1079.3638 656.0282,1079.0981 Q656.622,1078.8169 657.247,1078.2388 L657.247,1080.9575 Z " fill="#000000"/><text fill="#000000" font-family="sans-serif" font-size="14" lengthAdjust="spacing" textLength="80.2197" x="673.4956" y="1080.1636">MarvinBoss</text><line style="stroke:#181818;stroke-width:0.5;" x1="616.8" x2="779.1936" y1="1091.3169" y2="1091.3169"/><text fill="#000000" font-family="sans-serif" font-size="14" lengthAdjust="spacing" textLength="85.8457" x="621.8" y="1108.312">#phase : int</text><line style="stroke:#181818;stroke-width:0.5;" x1="616.8" x2="779.1936" y1="1115.6138" y2="1115.6138"/><text fill="#000000" font-family="sans-serif" font-size="14" lengthAdjust="spacing" textLength="152.3936" x="621.8" y="1132.6089">+switchPhase() : void</text></g><!--class Item--><g class="entity" data-entity="Item" data-source-line="89" data-uid="ent0022" id="entity_Item"><rect fill="#F1F1F1" height="64.2969" rx="2.5" ry="2.5" style="stroke:#181818;stroke-width:0.5;" width="258.1211" x="1032.94" y="910.5769"/><ellipse cx="1141.816" cy="926.5769" fill="#CDCDCD" rx="11" ry="11" style="stroke:#181818;stroke-width:1;"/><path d="M1141.9254,921.9206 L1140.7691,926.9988 L1143.0972,926.9988 L1141.9254,921.9206 Z M1140.441,919.6863 L1143.4254,919.6863 L1146.7847,932.0769 L1144.3316,932.0769 L1143.566,929.0144 L1140.2847,929.0144 L1139.5347,932.0769 L1137.0972,932.0769 L1140.441,919.6863 Z " fill="#000000"/><text fill="#000000" font-family="sans-serif" font-size="14" font-style="italic" lengthAdjust="spacing" textLength="31.8691" x="1162.316" y="931.4236">Item</text><line style="stroke:#181818;stroke-width:0.5;" x1="1033.94" x2="1290.0611" y1="942.5769" y2="942.5769"/><line style="stroke:#181818;stroke-width:0.5;" x1="1033.94" x2="1290.0611" y1="950.5769" y2="950.5769"/><text fill="#000000" font-family="sans-serif" font-size="14" lengthAdjust="spacing" textLength="246.1211" x="1038.94" y="967.572">+applyEffect(player : Player) : void</text></g><!--class Potion--><g class="entity" data-entity="Potion" data-source-line="93" data-uid="ent0023" id="entity_Potion"><rect fill="#F1F1F1" height="64.2969" rx="2.5" ry="2.5" style="stroke:#181818;stroke-width:0.5;" width="258.1211" x="1618.94" y="1067.4669"/><ellipse cx="1721.8379" cy="1083.4669" fill="#C2C2C2" rx="11" ry="11" style="stroke:#181818;stroke-width:1;"/><path d="M1724.8067,1089.1075 Q1724.2286,1089.4044 1723.5879,1089.545 Q1722.9473,1089.7013 1722.2442,1089.7013 Q1719.7442,1089.7013 1718.4161,1088.0606 Q1717.1036,1086.4044 1717.1036,1083.2794 Q1717.1036,1080.1544 1718.4161,1078.4981 Q1719.7442,1076.8419 1722.2442,1076.8419 Q1722.9473,1076.8419 1723.5879,1076.9981 Q1724.2442,1077.1544 1724.8067,1077.4513 L1724.8067,1080.17 Q1724.1817,1079.5919 1723.5879,1079.3263 Q1722.9942,1079.045 1722.3692,1079.045 Q1721.0254,1079.045 1720.3379,1080.1231 Q1719.6504,1081.1856 1719.6504,1083.2794 Q1719.6504,1085.3731 1720.3379,1086.4513 Q1721.0254,1087.5138 1722.3692,1087.5138 Q1722.9942,1087.5138 1723.5879,1087.2481 Q1724.1817,1086.9669 1724.8067,1086.3888 L1724.8067,1089.1075 Z " fill="#000000"/><text fill="#000000" font-family="sans-serif" font-size="14" lengthAdjust="spacing" textLength="43.8252" x="1742.3379" y="1088.3136">Potion</text><line style="stroke:#181818;stroke-width:0.5;" x1="1619.94" x2="1876.0611" y1="1099.4669" y2="1099.4669"/><line style="stroke:#181818;stroke-width:0.5;" x1="1619.94" x2="1876.0611" y1="1107.4669" y2="1107.4669"/><text fill="#000000" font-family="sans-serif" font-size="14" lengthAdjust="spacing" textLength="246.1211" x="1624.94" y="1124.462">+applyEffect(player : Player) : void</text></g><!--class Armor--><g class="entity" data-entity="Armor" data-source-line="97" data-uid="ent0024" id="entity_Armor"><rect fill="#F1F1F1" height="64.2969" rx="2.5" ry="2.5" style="stroke:#181818;stroke-width:0.5;" width="258.1211" x="1032.94" y="1067.4669"/><ellipse cx="1136.1046" cy="1083.4669" fill="#C2C2C2" rx="11" ry="11" style="stroke:#181818;stroke-width:1;"/><path d="M1139.0733,1089.1075 Q1138.4952,1089.4044 1137.8546,1089.545 Q1137.2139,1089.7013 1136.5108,1089.7013 Q1134.0108,1089.7013 1132.6827,1088.0606 Q1131.3702,1086.4044 1131.3702,1083.2794 Q1131.3702,1080.1544 1132.6827,1078.4981 Q1134.0108,1076.8419 1136.5108,1076.8419 Q1137.2139,1076.8419 1137.8546,1076.9981 Q1138.5108,1077.1544 1139.0733,1077.4513 L1139.0733,1080.17 Q1138.4483,1079.5919 1137.8546,1079.3263 Q1137.2608,1079.045 1136.6358,1079.045 Q1135.2921,1079.045 1134.6046,1080.1231 Q1133.9171,1081.1856 1133.9171,1083.2794 Q1133.9171,1085.3731 1134.6046,1086.4513 Q1135.2921,1087.5138 1136.6358,1087.5138 Q1137.2608,1087.5138 1137.8546,1087.2481 Q1138.4483,1086.9669 1139.0733,1086.3888 L1139.0733,1089.1075 Z " fill="#000000"/><text fill="#000000" font-family="sans-serif" font-size="14" lengthAdjust="spacing" textLength="43.292" x="1156.6046" y="1088.3136">Armor</text><line style="stroke:#181818;stroke-width:0.5;" x1="1033.94" x2="1290.0611" y1="1099.4669" y2="1099.4669"/><line style="stroke:#181818;stroke-width:0.5;" x1="1033.94" x2="1290.0611" y1="1107.4669" y2="1107.4669"/><text fill="#000000" font-family="sans-serif" font-size="14" lengthAdjust="spacing" textLength="246.1211" x="1038.94" y="1124.462">+applyEffect(player : Player) : void</text></g><!--class Weapon--><g class="entity" data-entity="Weapon" data-source-line="101" data-uid="ent0025" id="entity_Weapon"><rect fill="#F1F1F1" height="64.2969" rx="2.5" ry="2.5" style="stroke:#181818;stroke-width:0.5;" width="258.1211" x="1325.94" y="1067.4669"/><ellipse cx="1422.0704" cy="1083.4669" fill="#C2C2C2" rx="11" ry="11" style="stroke:#181818;stroke-width:1;"/><path d="M1425.0391,1089.1075 Q1424.461,1089.4044 1423.8204,1089.545 Q1423.1797,1089.7013 1422.4766,1089.7013 Q1419.9766,1089.7013 1418.6485,1088.0606 Q1417.336,1086.4044 1417.336,1083.2794 Q1417.336,1080.1544 1418.6485,1078.4981 Q1419.9766,1076.8419 1422.4766,1076.8419 Q1423.1797,1076.8419 1423.8204,1076.9981 Q1424.4766,1077.1544 1425.0391,1077.4513 L1425.0391,1080.17 Q1424.4141,1079.5919 1423.8204,1079.3263 Q1423.2266,1079.045 1422.6016,1079.045 Q1421.2579,1079.045 1420.5704,1080.1231 Q1419.8829,1081.1856 1419.8829,1083.2794 Q1419.8829,1085.3731 1420.5704,1086.4513 Q1421.2579,1087.5138 1422.6016,1087.5138 Q1423.2266,1087.5138 1423.8204,1087.2481 Q1424.4141,1086.9669 1425.0391,1086.3888 L1425.0391,1089.1075 Z " fill="#000000"/><text fill="#000000" font-family="sans-serif" font-size="14" lengthAdjust="spacing" textLength="57.3604" x="1442.5704" y="1088.3136">Weapon</text><line style="stroke:#181818;stroke-width:0.5;" x1="1326.94" x2="1583.0611" y1="1099.4669" y2="1099.4669"/><line style="stroke:#181818;stroke-width:0.5;" x1="1326.94" x2="1583.0611" y1="1107.4669" y2="1107.4669"/><text fill="#000000" font-family="sans-serif" font-size="14" lengthAdjust="spacing" textLength="246.1211" x="1331.94" y="1124.462">+applyEffect(player : Player) : void</text></g><!--class GameManager--><g class="entity" data-entity="GameManager" data-source-line="114" data-uid="ent0030" id="entity_GameManager"><rect fill="#F1F1F1" height="113.1875" rx="2.5" ry="2.5" style="stroke:#181818;stroke-width:0.5;" width="242.4463" x="767.78" y="79.2969"/><ellipse cx="833.2307" cy="95.2969" fill="#C2C2C2" rx="11" ry="11" style="stroke:#181818;stroke-width:1;"/><path d="M836.1994,100.9375 Q835.6213,101.2344 834.9807,101.375 Q834.3401,101.5313 833.6369,101.5313 Q831.1369,101.5313 829.8088,99.8906 Q828.4963,98.2344 828.4963,95.1094 Q828.4963,91.9844 829.8088,90.3281 Q831.1369,88.6719 833.6369,88.6719 Q834.3401,88.6719 834.9807,88.8281 Q835.6369,88.9844 836.1994,89.2813 L836.1994,92 Q835.5744,91.4219 834.9807,91.1563 Q834.3869,90.875 833.7619,90.875 Q832.4182,90.875 831.7307,91.9531 Q831.0432,93.0156 831.0432,95.1094 Q831.0432,97.2031 831.7307,98.2813 Q832.4182,99.3438 833.7619,99.3438 Q834.3869,99.3438 834.9807,99.0781 Q835.5744,98.7969 836.1994,98.2188 L836.1994,100.9375 Z " fill="#000000"/><text fill="#000000" font-family="sans-serif" font-size="14" lengthAdjust="spacing" textLength="103.0449" x="853.7307" y="100.1436">GameManager</text><line style="stroke:#181818;stroke-width:0.5;" x1="768.78" x2="1009.2263" y1="111.2969" y2="111.2969"/><text fill="#000000" font-family="sans-serif" font-size="14" lengthAdjust="spacing" textLength="106.2441" x="773.78" y="128.292">-player : Player</text><text fill="#000000" font-family="sans-serif" font-size="14" lengthAdjust="spacing" textLength="211.8936" x="773.78" y="144.5889">-levelManager : LevelManager</text><line style="stroke:#181818;stroke-width:0.5;" x1="768.78" x2="1009.2263" y1="151.8906" y2="151.8906"/><text fill="#000000" font-family="sans-serif" font-size="14" lengthAdjust="spacing" textLength="230.4463" x="773.78" y="168.8857">+update(deltaTime : float) : void</text><text fill="#000000" font-family="sans-serif" font-size="14" lengthAdjust="spacing" textLength="112.3965" x="773.78" y="185.1826">+render() : void</text></g><!--class LevelManager--><g class="entity" data-entity="LevelManager" data-source-line="121" data-uid="ent0031" id="entity_LevelManager"><rect fill="#F1F1F1" height="113.1875" rx="2.5" ry="2.5" style="stroke:#181818;stroke-width:0.5;" width="215.4375" x="968.28" y="252.4869"/><ellipse cx="1022.4651" cy="268.4869" fill="#C2C2C2" rx="11" ry="11" style="stroke:#181818;stroke-width:1;"/><path d="M1025.4338,274.1275 Q1024.8557,274.4244 1024.2151,274.565 Q1023.5744,274.7213 1022.8713,274.7213 Q1020.3713,274.7213 1019.0432,273.0806 Q1017.7307,271.4244 1017.7307,268.2994 Q1017.7307,265.1744 1019.0432,263.5181 Q1020.3713,261.8619 1022.8713,261.8619 Q1023.5744,261.8619 1024.2151,262.0181 Q1024.8713,262.1744 1025.4338,262.4713 L1025.4338,265.19 Q1024.8088,264.6119 1024.2151,264.3463 Q1023.6213,264.065 1022.9963,264.065 Q1021.6526,264.065 1020.9651,265.1431 Q1020.2776,266.2056 1020.2776,268.2994 Q1020.2776,270.3931 1020.9651,271.4713 Q1021.6526,272.5338 1022.9963,272.5338 Q1023.6213,272.5338 1024.2151,272.2681 Q1024.8088,271.9869 1025.4338,271.4088 L1025.4338,274.1275 Z " fill="#000000"/><text fill="#000000" font-family="sans-serif" font-size="14" lengthAdjust="spacing" textLength="98.5674" x="1042.9651" y="273.3336">LevelManager</text><line style="stroke:#181818;stroke-width:0.5;" x1="969.28" x2="1182.7175" y1="284.4869" y2="284.4869"/><text fill="#000000" font-family="sans-serif" font-size="14" lengthAdjust="spacing" textLength="144.3887" x="974.28" y="301.482">-levels : List&lt;Level&gt;</text><text fill="#000000" font-family="sans-serif" font-size="14" lengthAdjust="spacing" textLength="163.9668" x="974.28" y="317.7789">-currentLevelIndex : int</text><line style="stroke:#181818;stroke-width:0.5;" x1="969.28" x2="1182.7175" y1="325.0806" y2="325.0806"/><text fill="#000000" font-family="sans-serif" font-size="14" lengthAdjust="spacing" textLength="203.4375" x="974.28" y="342.0757">+loadLevel(index : int) : void</text><text fill="#000000" font-family="sans-serif" font-size="14" lengthAdjust="spacing" textLength="134.3604" x="974.28" y="358.3726">+nextLevel() : void</text></g><!--class Level--><g class="entity" data-entity="Level" data-source-line="128" data-uid="ent0032" id="entity_Level"><rect fill="#F1F1F1" height="129.4844" rx="2.5" ry="2.5" style="stroke:#181818;stroke-width:0.5;" width="248.6533" x="806.67" y="425.6769"/><ellipse cx="908.1461" cy="441.6769" fill="#C2C2C2" rx="11" ry="11" style="stroke:#181818;stroke-width:1;"/><path d="M911.1148,447.3175 Q910.5367,447.6144 909.8961,447.755 Q909.2554,447.9113 908.5523,447.9113 Q906.0523,447.9113 904.7242,446.2706 Q903.4117,444.6144 903.4117,441.4894 Q903.4117,438.3644 904.7242,436.7081 Q906.0523,435.0519 908.5523,435.0519 Q909.2554,435.0519 909.8961,435.2081 Q910.5523,435.3644 911.1148,435.6613 L911.1148,438.38 Q910.4898,437.8019 909.8961,437.5363 Q909.3023,437.255 908.6773,437.255 Q907.3336,437.255 906.6461,438.3331 Q905.9586,439.3956 905.9586,441.4894 Q905.9586,443.5831 906.6461,444.6613 Q907.3336,445.7238 908.6773,445.7238 Q909.3023,445.7238 909.8961,445.4581 Q910.4898,445.1769 911.1148,444.5988 L911.1148,447.3175 Z " fill="#000000"/><text fill="#000000" font-family="sans-serif" font-size="14" lengthAdjust="spacing" textLength="37.2012" x="928.6461" y="446.5236">Level</text><line style="stroke:#181818;stroke-width:0.5;" x1="807.67" x2="1054.3233" y1="457.6769" y2="457.6769"/><text fill="#000000" font-family="sans-serif" font-size="14" lengthAdjust="spacing" textLength="174.3916" x="812.67" y="474.672">-enemies : List&lt;Enemy&gt;</text><text fill="#000000" font-family="sans-serif" font-size="14" lengthAdjust="spacing" textLength="137.3955" x="812.67" y="490.9689">-items : List&lt;Item&gt;</text><text fill="#000000" font-family="sans-serif" font-size="14" lengthAdjust="spacing" textLength="192.917" x="812.67" y="507.2657">-platforms : List&lt;Platform&gt;</text><line style="stroke:#181818;stroke-width:0.5;" x1="807.67" x2="1054.3233" y1="514.5675" y2="514.5675"/><text fill="#000000" font-family="sans-serif" font-size="14" lengthAdjust="spacing" textLength="230.4463" x="812.67" y="531.5626">+update(deltaTime : float) : void</text><text fill="#000000" font-family="sans-serif" font-size="14" lengthAdjust="spacing" textLength="236.6533" x="812.67" y="547.8595">+checkClearCondition() : boolean</text></g><!--class Platform--><g class="entity" data-entity="Platform" data-source-line="136" data-uid="ent0033" id="entity_Platform"><rect fill="#F1F1F1" height="80.5938" rx="2.5" ry="2.5" style="stroke:#181818;stroke-width:0.5;" width="284.1934" x="593.9" y="680.3469"/><ellipse cx="702.1026" cy="696.3469" fill="#C2C2C2" rx="11" ry="11" style="stroke:#181818;stroke-width:1;"/><path d="M705.0714,701.9875 Q704.4933,702.2844 703.8526,702.425 Q703.212,702.5813 702.5089,702.5813 Q700.0089,702.5813 698.6808,700.9406 Q697.3683,699.2844 697.3683,696.1594 Q697.3683,693.0344 698.6808,691.3781 Q700.0089,689.7219 702.5089,689.7219 Q703.212,689.7219 703.8526,689.8781 Q704.5089,690.0344 705.0714,690.3313 L705.0714,693.05 Q704.4464,692.4719 703.8526,692.2063 Q703.2589,691.925 702.6339,691.925 Q701.2901,691.925 700.6026,693.0031 Q699.9151,694.0656 699.9151,696.1594 Q699.9151,698.2531 700.6026,699.3313 Q701.2901,700.3938 702.6339,700.3938 Q703.2589,700.3938 703.8526,700.1281 Q704.4464,699.8469 705.0714,699.2688 L705.0714,701.9875 Z " fill="#000000"/><text fill="#000000" font-family="sans-serif" font-size="14" lengthAdjust="spacing" textLength="59.2881" x="722.6026" y="701.1936">Platform</text><line style="stroke:#181818;stroke-width:0.5;" x1="594.9" x2="877.0934" y1="712.3469" y2="712.3469"/><text fill="#000000" font-family="sans-serif" font-size="14" lengthAdjust="spacing" textLength="147.0957" x="599.9" y="729.342">#bounds : Rectangle</text><line style="stroke:#181818;stroke-width:0.5;" x1="594.9" x2="877.0934" y1="736.6438" y2="736.6438"/><text fill="#000000" font-family="sans-serif" font-size="14" lengthAdjust="spacing" textLength="272.1934" x="599.9" y="753.6389">+collidesWith(entity : Entity) : boolean</text></g><!--class CollisionDetector--><g class="entity" data-entity="CollisionDetector" data-source-line="141" data-uid="ent0034" id="entity_CollisionDetector"><rect fill="#F1F1F1" height="80.5938" rx="2.5" ry="2.5" style="stroke:#181818;stroke-width:0.5;" width="339.209" x="594.4" y="268.7869"/><ellipse cx="699.9366" cy="284.7869" fill="#C2C2C2" rx="11" ry="11" style="stroke:#181818;stroke-width:1;"/><path d="M702.9054,290.4275 Q702.3272,290.7244 701.6866,290.865 Q701.046,291.0213 700.3429,291.0213 Q697.8429,291.0213 696.5147,289.3806 Q695.2022,287.7244 695.2022,284.5994 Q695.2022,281.4744 696.5147,279.8181 Q697.8429,278.1619 700.3429,278.1619 Q701.046,278.1619 701.6866,278.3181 Q702.3429,278.4744 702.9054,278.7713 L702.9054,281.49 Q702.2804,280.9119 701.6866,280.6463 Q701.0929,280.365 700.4679,280.365 Q699.1241,280.365 698.4366,281.4431 Q697.7491,282.5056 697.7491,284.5994 Q697.7491,286.6931 698.4366,287.7713 Q699.1241,288.8338 700.4679,288.8338 Q701.0929,288.8338 701.6866,288.5681 Q702.2804,288.2869 702.9054,287.7088 L702.9054,290.4275 Z " fill="#000000"/><text fill="#000000" font-family="sans-serif" font-size="14" lengthAdjust="spacing" textLength="119.6357" x="720.4366" y="289.6336">CollisionDetector</text><line style="stroke:#181818;stroke-width:0.5;" x1="595.4" x2="932.609" y1="300.7869" y2="300.7869"/><line style="stroke:#181818;stroke-width:0.5;" x1="595.4" x2="932.609" y1="308.7869" y2="308.7869"/><text fill="#000000" font-family="sans-serif" font-size="14" lengthAdjust="spacing" textLength="327.209" x="600.4" y="325.782">+checkCollision(a : Entity, b : Entity) : boolean</text><text fill="#000000" font-family="sans-serif" font-size="14" lengthAdjust="spacing" textLength="318.4453" x="600.4" y="342.0789">+checkAll(player : Player, level : Level) : void</text></g><!--class Entity--><g class="entity" data-entity="Entity" data-source-line="17" data-uid="ent0002" id="entity_Entity"><rect fill="#F1F1F1" height="113.1875" rx="2.5" ry="2.5" style="stroke:#181818;stroke-width:0.5;" width="242.4463" x="319.78" y="433.8269"/><ellipse cx="416.3171" cy="449.8269" fill="#CDCDCD" rx="11" ry="11" style="stroke:#181818;stroke-width:1;"/><path d="M416.4265,445.1706 L415.2702,450.2488 L417.5984,450.2488 L416.4265,445.1706 Z M414.9421,442.9363 L417.9265,442.9363 L421.2859,455.3269 L418.8327,455.3269 L418.0671,452.2644 L414.7859,452.2644 L414.0359,455.3269 L411.5984,455.3269 L414.9421,442.9363 Z " fill="#000000"/><text fill="#000000" font-family="sans-serif" font-size="14" font-style="italic" lengthAdjust="spacing" textLength="40.8721" x="436.8171" y="454.6736">Entity</text><line style="stroke:#181818;stroke-width:0.5;" x1="320.78" x2="561.2263" y1="465.8269" y2="465.8269"/><text fill="#000000" font-family="sans-serif" font-size="14" lengthAdjust="spacing" textLength="135.8096" x="325.78" y="482.822">#position : Position</text><text fill="#000000" font-family="sans-serif" font-size="14" lengthAdjust="spacing" textLength="139.7061" x="325.78" y="499.1189">#hitbox : Rectangle</text><line style="stroke:#181818;stroke-width:0.5;" x1="320.78" x2="561.2263" y1="506.4206" y2="506.4206"/><text fill="#000000" font-family="sans-serif" font-size="14" lengthAdjust="spacing" textLength="230.4463" x="325.78" y="523.4157">+update(deltaTime : float) : void</text><text fill="#000000" font-family="sans-serif" font-size="14" lengthAdjust="spacing" textLength="175.2734" x="325.78" y="539.7126">+getHitbox() : Rectangle</text></g><!--reverse link Player to Hugo--><g class="link" data-entity-1="Player" data-entity-2="Hugo" data-source-line="50" data-uid="lnk7" id="link_Player_Hugo"><path codeLine="50" d="M106.26,844.4769 C106.26,875.0869 106.26,888.2269 106.26,910.5669" fill="none" id="Player-backto-Hugo" style="stroke:#181818;stroke-width:1;"/><polygon fill="none" points="106.26,826.4769,100.26,844.4769,112.26,844.4769,106.26,826.4769" style="stroke:#181818;stroke-width:1;"/></g><!--reverse link Player to Alexis--><g class="link" data-entity-1="Player" data-entity-2="Alexis" data-source-line="51" data-uid="lnk8" id="link_Player_Alexis"><path codeLine="51" d="M227.91,844.4769 C227.91,871.4069 227.91,880.7369 227.91,902.1269" fill="none" id="Player-backto-Alexis" style="stroke:#181818;stroke-width:1;"/><polygon fill="none" points="227.91,826.4769,221.91,844.4769,233.91,844.4769,227.91,826.4769" style="stroke:#181818;stroke-width:1;"/></g><!--reverse link Enemy to Sbire--><g class="link" data-entity-1="Enemy" data-entity-2="Sbire" data-source-line="78" data-uid="lnk16" id="link_Enemy_Sbire"><path codeLine="78" d="M547,1017.8069 C547,1043.7369 547,1055.0469 547,1075.1569" fill="none" id="Enemy-backto-Sbire" style="stroke:#181818;stroke-width:1;"/><polygon fill="none" points="547,999.8069,541,1017.8069,553,1017.8069,547,999.8069" style="stroke:#181818;stroke-width:1;"/></g><!--reverse link Sbire to SbireStatic--><g class="link" data-entity-1="Sbire" data-entity-2="SbireStatic" data-source-line="79" data-uid="lnk17" id="link_Sbire_SbireStatic"><path codeLine="79" d="M517.79,1141.9369 C517.79,1180.2069 517.79,1232.2069 517.79,1232.2069 C517.79,1232.2069 504.49,1232.2069 488.49,1232.2069" fill="none" id="Sbire-backto-SbireStatic" style="stroke:#181818;stroke-width:1;"/><polygon fill="none" points="517.79,1123.9369,511.79,1141.9369,523.79,1141.9369,517.79,1123.9369" style="stroke:#181818;stroke-width:1;"/></g><!--reverse link Sbire to SbireAbstract--><g class="link" data-entity-1="Sbire" data-entity-2="SbireAbstract" data-source-line="80" data-uid="lnk18" id="link_Sbire_SbireAbstract"><path codeLine="80" d="M542.07,1141.9069 C542.07,1165.8069 542.07,1184.0769 542.07,1207.9169" fill="none" id="Sbire-backto-SbireAbstract" style="stroke:#181818;stroke-width:1;"/><polygon fill="none" points="542.07,1123.9069,536.07,1141.9069,548.07,1141.9069,542.07,1123.9069" style="stroke:#181818;stroke-width:1;"/></g><!--reverse link Sbire to SbireGet--><g class="link" data-entity-1="Sbire" data-entity-2="SbireGet" data-source-line="81" data-uid="lnk19" id="link_Sbire_SbireGet"><path codeLine="81" d="M561.54,1141.8769 C561.54,1172.7669 561.54,1204.2069 561.54,1204.2069 C561.54,1204.2069 621.25,1204.2069 684.44,1204.2069" fill="none" id="Sbire-backto-SbireGet" style="stroke:#181818;stroke-width:1;"/><polygon fill="none" points="561.54,1123.8769,555.54,1141.8769,567.54,1141.8769,561.54,1123.8769" style="stroke:#181818;stroke-width:1;"/></g><!--reverse link Enemy to MarvinBoss--><g class="link" data-entity-1="Enemy" data-entity-2="MarvinBoss" data-source-line="82" data-uid="lnk20" id="link_Enemy_MarvinBoss"><path codeLine="82" d="M645.61,1017.8069 C645.61,1037.4369 645.61,1040.9869 645.61,1059.0269" fill="none" id="Enemy-backto-MarvinBoss" style="stroke:#181818;stroke-width:1;"/><polygon fill="none" points="645.61,999.8069,639.61,1017.8069,651.61,1017.8069,645.61,999.8069" style="stroke:#181818;stroke-width:1;"/></g><!--reverse link Item to Potion--><g class="link" data-entity-1="Item" data-entity-2="Potion" data-source-line="105" data-uid="lnk26" id="link_Item_Potion"><path codeLine="105" d="M1309.33,932.2069 C1481.9,932.2069 1748,932.2069 1748,932.2069 C1748,932.2069 1748,1018.6869 1748,1067.3369" fill="none" id="Item-backto-Potion" style="stroke:#181818;stroke-width:1;"/><polygon fill="none" points="1291.33,932.2069,1309.33,938.2069,1309.33,926.2069,1291.33,932.2069" style="stroke:#181818;stroke-width:1;"/></g><!--reverse link Item to Armor--><g class="link" data-entity-1="Item" data-entity-2="Armor" data-source-line="106" data-uid="lnk27" id="link_Item_Armor"><path codeLine="106" d="M1162,993.2269 C1162,1020.1569 1162,1040.2369 1162,1067.1469" fill="none" id="Item-backto-Armor" style="stroke:#181818;stroke-width:1;"/><polygon fill="none" points="1162,975.2269,1156,993.2269,1168,993.2269,1162,975.2269" style="stroke:#181818;stroke-width:1;"/></g><!--reverse link Item to Weapon--><g class="link" data-entity-1="Item" data-entity-2="Weapon" data-source-line="107" data-uid="lnk28" id="link_Item_Weapon"><path codeLine="107" d="M1309.37,954.2069 C1387.86,954.2069 1455,954.2069 1455,954.2069 C1455,954.2069 1455,1024.1069 1455,1066.9769" fill="none" id="Item-backto-Weapon" style="stroke:#181818;stroke-width:1;"/><polygon fill="none" points="1291.37,954.2069,1309.37,960.2069,1309.37,948.2069,1291.37,954.2069" style="stroke:#181818;stroke-width:1;"/></g><!--reverse link Entity to Platform--><g class="link" data-entity-1="Entity" data-entity-2="Platform" data-source-line="147" data-uid="lnk35" id="link_Entity_Platform"><path codeLine="147" d="M526.32,565.4669 C526.32,633.8069 526.32,721.2069 526.32,721.2069 C526.32,721.2069 556.26,721.2069 593.53,721.2069" fill="none" id="Entity-backto-Platform" style="stroke:#181818;stroke-width:1;"/><polygon fill="none" points="526.32,547.4669,520.32,565.4669,532.32,565.4669,526.32,547.4669" style="stroke:#181818;stroke-width:1;"/></g><!--link GameManager to Player--><g class="link" data-entity-1="GameManager" data-entity-2="Player" data-source-line="152" data-uid="lnk36" id="link_GameManager_Player"><path codeLine="152" d="M767.49,136.2069 C568.17,136.2069 193.68,136.2069 193.68,136.2069 C193.68,136.2069 193.68,440.3869 193.68,608.8069" fill="none" id="GameManager-to-Player" style="stroke:#181818;stroke-width:1;"/><polygon fill="#181818" points="193.68,614.8069,197.68,605.8069,193.68,609.8069,189.68,605.8069,193.68,614.8069" style="stroke:#181818;stroke-width:1;"/><text fill="#000000" font-family="sans-serif" font-size="13" lengthAdjust="spacing" textLength="38.9429" x="202.29" y="132.2738">utilise</text></g><!--link GameManager to LevelManager--><g class="link" data-entity-1="GameManager" data-entity-2="LevelManager" data-source-line="153" data-uid="lnk37" id="link_GameManager_LevelManager"><path codeLine="153" d="M989.25,192.6069 C989.25,211.7369 989.25,227.0969 989.25,246.2469" fill="none" id="GameManager-to-LevelManager" style="stroke:#181818;stroke-width:1;"/><polygon fill="#181818" points="989.25,252.2469,993.25,243.2469,989.25,247.2469,985.25,243.2469,989.25,252.2469" style="stroke:#181818;stroke-width:1;"/></g><!--link LevelManager to Level--><g class="link" data-entity-1="LevelManager" data-entity-2="Level" data-source-line="154" data-uid="lnk38" id="link_LevelManager_Level"><path codeLine="154" d="M1011.8,365.9569 C1011.8,384.7569 1011.8,399.8169 1011.8,419.1969" fill="none" id="LevelManager-to-Level" style="stroke:#181818;stroke-width:1;"/><polygon fill="#181818" points="1011.8,425.1969,1015.8,416.1969,1011.8,420.1969,1007.8,416.1969,1011.8,425.1969" style="stroke:#181818;stroke-width:1;"/><text fill="#000000" font-family="sans-serif" font-size="13" lengthAdjust="spacing" textLength="64.0161" x="946.8" y="391.6438">contient *</text></g><!--link Level to Enemy--><g class="link" data-entity-1="Level" data-entity-2="Enemy" data-source-line="155" data-uid="lnk39" id="link_Level_Enemy"><path codeLine="155" d="M806.57,551.2069 C704.96,551.2069 578.06,551.2069 578.06,551.2069 C578.06,551.2069 578.06,771.2069 578.06,879.7969" fill="none" id="Level-to-Enemy" style="stroke:#181818;stroke-width:1;"/><polygon fill="#181818" points="578.06,885.7969,582.06,876.7969,578.06,880.7969,574.06,876.7969,578.06,885.7969" style="stroke:#181818;stroke-width:1;"/><text fill="#000000" font-family="sans-serif" font-size="13" lengthAdjust="spacing" textLength="64.0161" x="513.06" y="600.3138">contient *</text></g><!--link Level to Item--><g class="link" data-entity-1="Level" data-entity-2="Item" data-source-line="156" data-uid="lnk40" id="link_Level_Item"><path codeLine="156" d="M1049.73,555.2269 C1049.73,653.4169 1049.73,830.2969 1049.73,904.3469" fill="none" id="Level-to-Item" style="stroke:#181818;stroke-width:1;"/><polygon fill="#181818" points="1049.73,910.3469,1053.73,901.3469,1049.73,905.3469,1045.73,901.3469,1049.73,910.3469" style="stroke:#181818;stroke-width:1;"/><text fill="#000000" font-family="sans-serif" font-size="13" lengthAdjust="spacing" textLength="64.0161" x="984.73" y="728.8538">contient *</text></g><!--link Level to Platform--><g class="link" data-entity-1="Level" data-entity-2="Platform" data-source-line="157" data-uid="lnk41" id="link_Level_Platform"><path codeLine="157" d="M842.39,555.4669 C842.39,595.4969 842.39,639.5469 842.39,673.9969" fill="none" id="Level-to-Platform" style="stroke:#181818;stroke-width:1;"/><polygon fill="#181818" points="842.39,679.9969,846.39,670.9969,842.39,674.9969,838.39,670.9969,842.39,679.9969" style="stroke:#181818;stroke-width:1;"/><text fill="#000000" font-family="sans-serif" font-size="13" lengthAdjust="spacing" textLength="64.0161" x="777.39" y="613.8038">contient *</text></g><!--link CollisionDetector to Entity--><g class="link" data-entity-1="CollisionDetector" data-entity-2="Entity" data-source-line="158" data-uid="lnk42" id="link_CollisionDetector_Entity"><path codeLine="158" d="M593.99,309.2069 C516.17,309.2069 441,309.2069 441,309.2069 C441,309.2069 441,374.4369 441,427.5769" fill="none" id="CollisionDetector-to-Entity" style="stroke:#181818;stroke-width:1;stroke-dasharray:7,7;"/><polygon fill="#181818" points="441,433.5769,445,424.5769,441,428.5769,437,424.5769,441,433.5769" style="stroke:#181818;stroke-width:1;"/></g><!--link CollisionDetector to Player--><g class="link" data-entity-1="CollisionDetector" data-entity-2="Player" data-source-line="159" data-uid="lnk43" id="link_CollisionDetector_Player"><path codeLine="159" d="M700.53,349.5869 C700.53,441.7469 700.53,659.2069 700.53,659.2069 C700.53,659.2069 480.1,659.2069 330.62,659.2069" fill="none" id="CollisionDetector-to-Player" style="stroke:#181818;stroke-width:1;stroke-dasharray:7,7;"/><polygon fill="#181818" points="324.62,659.2069,333.62,663.2069,329.62,659.2069,333.62,655.2069,324.62,659.2069" style="stroke:#181818;stroke-width:1;"/></g><!--link CollisionDetector to Level--><g class="link" data-entity-1="CollisionDetector" data-entity-2="Level" data-source-line="160" data-uid="lnk44" id="link_CollisionDetector_Level"><path codeLine="160" d="M870.14,349.7769 C870.14,372.0169 870.14,394.0969 870.14,419.3069" fill="none" id="CollisionDetector-to-Level" style="stroke:#181818;stroke-width:1;stroke-dasharray:7,7;"/><polygon fill="#181818" points="870.14,425.3069,874.14,416.3069,870.14,420.3069,866.14,416.3069,870.14,425.3069" style="stroke:#181818;stroke-width:1;"/></g><!--link Player to Item--><g class="link" data-entity-1="Player" data-entity-2="Item" data-source-line="161" data-uid="lnk45" id="link_Player_Item"><path codeLine="161" d="M324.88,805.2069 C560.9,805.2069 1038.54,805.2069 1038.54,805.2069 C1038.54,805.2069 1038.54,863.4669 1038.54,904.1369" fill="none" id="Player-to-Item" style="stroke:#181818;stroke-width:1;"/><polygon fill="#181818" points="1038.54,910.1369,1042.54,901.1369,1038.54,905.1369,1034.54,901.1369,1038.54,910.1369" style="stroke:#181818;stroke-width:1;"/><text fill="#000000" font-family="sans-serif" font-size="13" lengthAdjust="spacing" textLength="55.4849" x="678.17" y="801.2738">ramasse</text></g><!--link Player to Enemy--><g class="link" data-entity-1="Player" data-entity-2="Enemy" data-source-line="162" data-uid="lnk46" id="link_Player_Enemy"><path codeLine="162" d="M276.09,826.4669 C276.09,863.1269 276.09,895.2069 276.09,895.2069 C276.09,895.2069 342.39,895.2069 412.29,895.2069" fill="none" id="Player-to-Enemy" style="stroke:#181818;stroke-width:1;"/><polygon fill="#181818" points="418.29,895.2069,409.29,891.2069,413.29,895.2069,409.29,899.2069,418.29,895.2069" style="stroke:#181818;stroke-width:1;"/><text fill="#000000" font-family="sans-serif" font-size="13" lengthAdjust="spacing" textLength="49.0801" x="262.82" y="891.2738">combat</text></g><!--reverse link Entity to Player--><g class="link" data-entity-1="Entity" data-entity-2="Player" data-source-line="163" data-uid="lnk47" id="link_Entity_Player"><path codeLine="163" d="M352.19,565.1669 C352.19,606.4769 352.19,637.2069 352.19,637.2069 C352.19,637.2069 341.01,637.2069 324.62,637.2069" fill="none" id="Entity-backto-Player" style="stroke:#181818;stroke-width:1;"/><polygon fill="none" points="352.19,547.1669,346.19,565.1669,358.19,565.1669,352.19,547.1669" style="stroke:#181818;stroke-width:1;"/></g><!--reverse link Entity to Enemy--><g class="link" data-entity-1="Entity" data-entity-2="Enemy" data-source-line="164" data-uid="lnk48" id="link_Entity_Enemy"><path codeLine="164" d="M454.5,565.2469 C454.5,652.0869 454.5,798.8569 454.5,885.7769" fill="none" id="Entity-backto-Enemy" style="stroke:#181818;stroke-width:1;"/><polygon fill="none" points="454.5,547.2469,448.5,565.2469,460.5,565.2469,454.5,547.2469" style="stroke:#181818;stroke-width:1;"/></g><!--reverse link Entity to Item--><g class="link" data-entity-1="Entity" data-entity-2="Item" data-source-line="165" data-uid="lnk49" id="link_Entity_Item"><path codeLine="165" d="M490.41,565.2169 C490.41,650.3669 490.41,783.2069 490.41,783.2069 C490.41,783.2069 1044.13,783.2069 1044.13,783.2069 C1044.13,783.2069 1044.13,863.8269 1044.13,910.4469" fill="none" id="Entity-backto-Item" style="stroke:#181818;stroke-width:1;"/><polygon fill="none" points="490.41,547.2169,484.41,565.2169,496.41,565.2169,490.41,547.2169" style="stroke:#181818;stroke-width:1;"/></g><!--SRC=[fLVRSjf847tdAwQo3o4NiljC9LJ9MB7P0fj2KAbz74a3p3BIg3Gjs-Jo0VcKV8T_B3qNO2Ikk_OBk4zFz-dh3A_9fwD_hTUaVt_tUN0pcmJJmVqTkNd-UVVySn8CGuHEd0DP490abW0o8oalMG9SvYsrudb1IvgHc2QhHIchFErB8KlokEJ0F3mHLAa0eEHn1MoGo3pYNndvorDHIvhAHvulo9mAvH_EP2wJPIapHg2iV4JmdC6wO4IMi9GUK20Vkc0Hh0KZcYxD5uArMi011TUSBb0BxSr6Gz8Xj_pvLqdBPCaP2NFKMPC_oLZGDIlnIvYpJ0i6mBBMwKHXWeT158KHkGx9LH2ToIkD5PGq0PkUZUjlBO9_Vv12AgxJJBfaxBuw19CRooUKJxQHQU0TgOgK0ckdJ02TSeolI-P2KdY3NnuaJvtQWi6jCT5-KpFousnuus7mJpY9Jgkvv9DNDeNgbGkf4QvBiCLiO0zSK-OvU39QPjXGJMbC5SD-Ga_x1upuIkQLsiEukX8oMUakws8_Iy5eleNVkQFjMhei4kjZXu1_gwmu90UwOjSqmpoqK_DXkHpGn6fC9L0Hx9nlI6D1z8VDrssra5ws3hEjdGW4U-Agbk54Ph7iuw128pSdpRbIVVpUwHWQUqBhwO862k_2qI2yj87qw75sh87iO9xjdqDTyb_gOuSg6BGB6t3NHNueKGs6KOoxadohLyK88w30awOqSCURyXi6jSehO5HynerecLp2p5eRqVA1vrTIrRkYME8uxQL8FN98bcED7UmActzJVyFI26t8Ew4NQ1EgHTi4CUIcantv2nfjC0r7bxQPtkp7canZzQah2h4EvtFScfVdVIpD9d-ndS0imnUR-S9eyJ8w9YscAZQqXj3mRCYiqmjA5yoc4xn2jrVfZFmTpYuivGt5MozQuu1acuBQa3KmeZag-Vdha4Qi7YBO0nER8rqozFxTsmvdhbohMh8ynM4zNXRVHOsaeQ9lio5NyD6ezJmugKgq3KO-G1zFUwECZ583j_aEFq0nPq_Mp3cMDNhChkaDFpEoFZ-kvsk3weRerGi0Srdk5CPEqFj_MKwMB5dryM8l-p9FpRF91EFVzlNPTFvg6p7MRrcrzyHoBgGGF6Ng2uTbczbNMzSztqwwwkk32XbTCq2xZL6sp3SgRRgr-Px4H-rxHmCXcgFxthREfdqRHKLkxirf9zabulo0Hj5zVs1-GvnPiVxKTJgzpPkXIohW62RRKwXDMMqUjYYUnjyFm37nvAtLCQ2zAOw0PWqTmRODKCFtQ_NXGyyLuGZeLiXXqFXhkGHubF272BO6yv5T95bCeLaZxS8N6UsQH5l-3G00]--></g></svg>